<svg width="52" height="46" viewBox="0 0 52 46" fill="none" xmlns="http://www.w3.org/2000/svg">
<path fill-rule="evenodd" clip-rule="evenodd" d="M26 0C11.635 0 0 10.5528 0 23.5818C0 34.0167 7.4425 42.8304 17.7775 45.9549C19.0775 46.1613 19.565 45.4538 19.565 44.8348C19.565 44.2747 19.5325 42.4177 19.5325 40.4427C13 41.5334 11.31 38.9983 10.79 37.6719C10.4975 36.9939 9.23 34.901 8.125 34.3409C7.215 33.8988 5.915 32.8081 8.0925 32.7786C10.14 32.7492 11.6025 34.4883 12.09 35.1958C14.43 38.7625 18.1675 37.7603 19.6625 37.1413C19.89 35.6085 20.5725 34.5768 21.32 33.9872C15.535 33.3977 9.49 31.3637 9.49 22.3437C9.49 19.7792 10.4975 17.6568 12.155 16.0061C11.895 15.4166 10.985 12.9994 12.415 9.75695C12.415 9.75695 14.5925 9.13793 19.565 12.1741C21.645 11.6435 23.855 11.3782 26.065 11.3782C28.275 11.3782 30.485 11.6435 32.565 12.1741C37.5375 9.10845 39.715 9.75695 39.715 9.75695C41.145 12.9994 40.235 15.4166 39.975 16.0061C41.6325 17.6568 42.64 19.7497 42.64 22.3437C42.64 31.3932 36.5625 33.3977 30.7775 33.9872C31.72 34.7241 32.5325 36.139 32.5325 38.3498C32.5325 41.5039 32.5 44.0389 32.5 44.8348C32.5 45.4538 32.9875 46.1908 34.2875 45.9549C39.4489 44.3744 43.9339 41.3657 47.1113 37.3523C50.2887 33.3388 51.9984 28.5227 52 23.5818C52 10.5528 40.365 0 26 0Z" fill="#08FDD8"/>
</svg>
