<svg width="53" height="46" viewBox="0 0 53 46" fill="none" xmlns="http://www.w3.org/2000/svg">
<path d="M12.0473 14.9482V45.9962H0.662809V14.9482H12.0473ZM12.7711 5.36288L12.7754 5.55068C12.7754 6.98599 12.1043 8.27758 11.0323 9.18207L11.0281 9.18399C10.3966 9.70847 9.6569 10.114 8.8517 10.3772C8.0465 10.6403 7.19183 10.7558 6.33714 10.717H6.35191H6.28227C5.44723 10.753 4.61277 10.6356 3.82886 10.3718C3.04495 10.1081 2.32769 9.70344 1.72002 9.18207L1.72213 9.18399C1.15788 8.6896 0.713467 8.09369 0.417326 7.43441C0.121186 6.77512 -0.0201649 6.06695 0.00231667 5.35522V5.36288L0.000206471 5.23066C0.000206471 3.77043 0.683911 2.45585 1.77488 1.53411L1.77911 1.53219C3.04636 0.484083 4.71983 -0.0645251 6.4321 0.00681575H6.41944C7.25836 -0.0304197 8.09701 0.0851888 8.88597 0.346831C9.67494 0.608472 10.3983 1.01086 11.0133 1.53028L11.0091 1.52644C11.5671 2.0135 12.0108 2.59799 12.3136 3.24477C12.6164 3.89155 12.772 4.58726 12.7711 5.29006V5.37055V5.36671V5.36288ZM52.9958 28.2052V45.9962H41.6471V29.3914C41.7625 27.5693 41.2657 25.7583 40.2227 24.1982L40.2481 24.2385C39.7573 23.6108 39.0958 23.1092 38.328 22.7828C37.5603 22.4564 36.7125 22.3161 35.8673 22.3758H35.8842C34.5635 22.333 33.2692 22.7189 32.2335 23.4643L32.2462 23.4566C31.2899 24.1565 30.5414 25.0622 30.0685 26.0915L30.0516 26.1356C29.7626 26.9592 29.6348 27.8225 29.6738 28.6862V28.6728V46H18.3252C18.3716 37.6666 18.3948 30.9098 18.3948 25.7293C18.3948 20.5489 18.3836 17.4579 18.3611 16.4564L18.3273 14.9521H29.676V19.463H29.6063C30.0579 18.8019 30.5243 18.2289 31.037 17.6924L31.0202 17.7096C31.6131 17.1175 32.2504 16.5828 32.9362 16.1038L32.97 16.0808C33.8481 15.4689 34.8443 15.0114 35.9074 14.7317L35.9707 14.7183C37.2025 14.3919 38.4796 14.228 39.7627 14.2315H39.9294H39.921C41.6899 14.1639 43.4539 14.446 45.091 15.0585C46.728 15.6709 48.199 16.599 49.4021 17.7786L49.4084 17.7863C51.8028 20.1574 53 23.6297 53 28.2033L52.9958 28.2052Z" fill="#08FDD8"/>
</svg>
